<svg width="27" height="40" viewBox="0 0 396 584" fill="none" xmlns="http://www.w3.org/2000/svg">
<path d="M 177.500 19.027 C 166.780 20.244, 156.199 22.434, 144.329 25.893 C 111.011 35.601, 80.330 55.486, 56.225 82.996 C 1.549 145.395, -4.249 239.510, 42.303 309 C 47.677 317.022, 57.963 329.754, 62.689 334.232 L 65.572 336.964 76.026 326.474 C 83.947 318.526, 86.240 315.653, 85.490 314.615 C 84.945 313.862, 81.419 309.703, 77.654 305.373 C 60.816 286.009, 49.749 263.216, 43.867 235.784 C 40.950 222.183, 40.274 197.743, 42.413 183.235 C 44.819 166.912, 53.488 139, 56.152 139 C 56.705 139, 59.710 141.201, 62.829 143.891 C 97.487 173.781, 149.196 184.540, 194.763 171.342 C 213.164 166.012, 230.350 156.910, 246.309 144.040 L 254.117 137.743 261.522 139.942 C 277.491 144.682, 293.375 146.025, 308.678 143.928 C 316.521 142.853, 332.852 138.685, 336.164 136.912 C 337.527 136.183, 338.261 136.485, 339.369 138.233 C 343.566 144.853, 352.821 175.419, 351.595 178.612 C 351.288 179.414, 349.648 180, 347.715 180 C 338.635 180, 321.310 184.879, 309.581 190.739 C 276.434 207.299, 254.110 237.722, 248.485 274 C 244.925 296.956, 248.587 320.373, 258.946 340.893 C 260.626 344.220, 262 347.197, 262 347.507 C 262 349.417, 237.666 357.008, 223.810 359.421 C 219.030 360.253, 207.901 361.242, 199.079 361.619 L 183.039 362.305 182.769 383.403 L 182.500 404.500 139.685 404.761 L 96.870 405.022 97.240 442.761 C 97.661 485.659, 97.955 487.648, 106.560 505.867 C 119.357 532.961, 143.185 552.664, 173 560.806 L 182.500 563.400 232.750 563.766 L 283 564.132 283 548.566 L 283 533 235.160 533 C 190.706 533, 186.770 532.859, 179.555 531.014 C 156.645 525.155, 137.948 507.504, 130.283 484.500 C 127.814 477.087, 127.589 474.977, 127.221 455.734 L 126.825 434.968 154.662 435.234 L 182.500 435.500 183.077 456 C 183.683 477.541, 183.971 479.090, 189.368 489.740 C 195.766 502.365, 208.508 513.103, 223 518.081 C 231.541 521.015, 247.606 521.278, 256.500 518.628 C 276.194 512.762, 292.366 495.788, 297.113 476 C 298.967 468.271, 298.719 454.737, 296.591 447.552 C 290.634 427.440, 274.369 411.568, 254.540 406.518 C 250.311 405.441, 243.412 405, 230.790 405 L 213 405 213 398.138 L 213 391.276 219.750 390.591 C 245.578 387.971, 276.065 376.875, 299.500 361.567 C 328.470 342.643, 355.058 311.674, 368.243 281.497 C 391.289 228.753, 389.700 170.565, 363.834 120 C 354.196 101.157, 345.874 89.876, 329.502 73.457 C 303.746 47.627, 277.040 32.363, 242 23.445 C 224.849 19.080, 195.025 17.037, 177.500 19.027 M 183.500 49.080 C 157.819 51.121, 132.414 60.225, 109.091 75.743 C 100.233 81.637, 82.457 98.020, 75.722 106.497 L 71.752 111.494 78.126 117.305 C 101.709 138.807, 133.642 149.279, 165.815 146.063 C 194.066 143.238, 218.584 130.966, 238.838 109.513 L 247.175 100.682 255.338 104.773 C 259.827 107.023, 266.432 109.800, 270.016 110.943 C 282.748 115.006, 303.635 115.283, 316.443 111.560 C 321.586 110.065, 322.027 109.727, 320.834 108.199 C 307.314 90.869, 287.955 75.096, 267.500 64.742 C 258.086 59.977, 240.063 53.714, 229.471 51.526 C 222.209 50.026, 201.088 47.901, 196 48.158 C 194.625 48.228, 189 48.642, 183.500 49.080 M 340.500 211.468 C 318.231 216.325, 296.405 233.388, 285.937 254.124 C 278.524 268.810, 275.478 288.999, 278.319 304.630 C 279.706 312.265, 285.812 329.212, 287.944 331.344 C 290.515 333.915, 314.084 311.548, 325.253 295.938 C 340.874 274.106, 351.863 244.331, 353.664 218.951 L 354.299 210 350.400 210.079 C 348.255 210.123, 343.800 210.748, 340.500 211.468 M 213.022 452.153 C 213.047 471.633, 213.731 474.376, 220.409 481.767 C 230.665 493.120, 250.758 493.012, 260.821 481.551 C 273.196 467.457, 270.050 447.644, 254 438.599 C 248.510 435.506, 248.468 435.499, 230.750 435.153 L 213 434.806 213.022 452.153" fill="#F0C859" fill-rule="evenodd"/>
</svg>
