<svg width="113" height="40" viewBox="0 0 902 316" fill="none" xmlns="http://www.w3.org/2000/svg">
<path d="M 141 32.038 C 131.954 32.846, 115.948 36.551, 106.936 39.923 C 68.622 54.258, 36.753 87.990, 25.141 126.500 C 20.274 142.642, 19.576 147.440, 19.540 165 C 19.503 182.653, 20.667 190.516, 25.555 205.659 C 38.445 245.591, 72.750 279.725, 112.660 292.333 C 128.781 297.425, 136.248 298.500, 155.500 298.499 C 169.505 298.498, 175.275 298.085, 181.500 296.639 C 195.673 293.346, 205.245 289.917, 217 283.920 C 249.159 267.515, 273.759 238.811, 284.325 205.365 C 289.211 189.897, 290.458 181.609, 290.395 165 C 290.329 147.588, 288.255 135.270, 282.945 120.750 C 271.424 89.249, 247.693 62.301, 218.076 47.088 C 200.130 37.870, 186.047 33.719, 167 32.034 C 154.443 30.924, 153.476 30.924, 141 32.038 M 679.259 32.081 C 666.042 33.438, 648.209 38.302, 635.745 43.949 C 576.338 70.865, 544.880 136.701, 561.591 199.141 C 567.890 222.679, 577.951 240.355, 595.182 258.153 C 615.699 279.345, 645.792 293.894, 677.759 298.075 C 689.960 299.671, 714.488 298.698, 727 296.122 C 749.589 291.470, 774.494 279.510, 790.750 265.505 L 795 261.844 795 210.922 L 795 160 738.500 160 L 682 160 682 178.433 C 682 196.312, 682.063 196.885, 684.112 197.535 C 685.273 197.904, 700.911 198.047, 718.862 197.853 L 751.500 197.500 751.769 220.220 L 752.037 242.940 747.769 245.118 C 721.065 258.742, 678.882 259.538, 653.771 246.892 C 631.200 235.526, 615.581 216.225, 608.945 191.500 C 606.257 181.488, 605.220 160.350, 606.927 150.384 C 609.688 134.262, 615.233 120.841, 624.052 108.936 C 640.150 87.203, 662.841 75.545, 691.510 74.279 C 716.495 73.175, 737.321 78.845, 760.902 93.171 C 764.426 95.312, 767.720 96.927, 768.222 96.759 C 768.724 96.592, 773.802 88.815, 779.506 79.478 L 789.878 62.500 787.189 60.307 C 777.421 52.341, 754.735 41.166, 739.947 37.037 C 722.885 32.273, 697.545 30.204, 679.259 32.081 M 318 165 L 318 295 341.500 295 L 365 295 365 208 C 365 160.150, 365.337 121.014, 365.750 121.030 C 366.163 121.047, 370.550 126.569, 375.500 133.301 C 380.450 140.034, 409.215 179.171, 439.422 220.271 L 494.344 295 512.172 295 L 530 295 530 164.982 L 530 34.964 506.478 35.232 L 482.955 35.500 482.988 121.750 C 483.007 169.361, 482.636 208, 482.160 208 C 481.686 208, 452.585 169.075, 417.491 121.500 L 353.684 35 335.842 35 L 318 35 318 165 M 823 165 L 823 295 846.500 295 L 870 295 870 165 L 870 35 846.500 35 L 823 35 823 165 M 142.500 75.041 C 117.537 78.926, 95.479 93.285, 81.660 114.646 C 65.805 139.156, 62.953 171.939, 74.137 201.144 C 83.553 225.735, 105.638 245.714, 131.715 253.231 C 142.261 256.271, 165.831 256.481, 176.500 253.629 C 209.020 244.938, 233.217 219.176, 240.578 185.408 C 243.314 172.855, 242.900 154.051, 239.612 141.509 C 232.515 114.439, 215.911 93.914, 191.911 82.543 C 177.719 75.819, 157.361 72.728, 142.500 75.041" fill="#F0C859" fill-rule="evenodd"/>
</svg>
